<?xml version="1.0" encoding="UTF-8" standalone="no"?>
<svg xmlns="http://www.w3.org/2000/svg" height="500" width="300" version="1.1">
	<defs>
		<radialGradient id="radialGradient7026" gradientUnits="userSpaceOnUse" cy="363.8" cx="458.6" gradientTransform="matrix(0.6,0,0,1,-125.14285,-113.79075)" r="250">
			<stop style="stop-color:#445566;" offset="0"/>
			<stop style="stop-color:#113344;" offset="1"/>
		</radialGradient>
	</defs>
	<path style="fill:url(#radialGradient7026);" d="m0,0,300,0,0,500-300,0z"/>
	<path d="m109.9,211.9-12.15,0-19.25-21.3,0,21.3-9.324,0,0-48.13,9.324,0,0,21.48,19.67-21.48,11.07,0-21.72,23.64,22.38,24.48" style="fill:#ffffff;text-align:center;"/>
	<path d="m150.5,211.9-31.76,0,0-48.07,31.76,0,0,7.7-22.62,0,0,11.49,22.32,0,0,7.52-22.32,0,0,13.23,22.62,0,0,8.121" style="fill:#ffffff;text-align:center;"/>
	<path d="m194.2,211.9-31.76,0,0-48.07,31.76,0,0,7.7-22.62,0,0,11.49,22.32,0,0,7.52-22.32,0,0,13.23,22.62,0,0,8.121" style="fill:#ffffff;text-align:center;"/>
	<path d="m132.4,375.1c-1.364,1.684-2.847,3.148-4.452,4.391-1.604,1.203-3.289,2.206-5.053,3.008-1.725,0.8021-3.509,1.384-5.354,1.745-1.805,0.401-3.609,0.6016-5.414,0.6016-3.569,0-6.918-0.6417-10.05-1.925-3.128-1.283-5.855-3.048-8.181-5.294s-4.171-4.893-5.534-7.941c-1.364-3.048-2.045-6.337-2.045-9.866,0-3.449,0.6617-6.677,1.985-9.685,1.364-3.048,3.208-5.695,5.534-7.941,2.366-2.246,5.113-4.01,8.242-5.294,3.128-1.323,6.477-1.985,10.05-1.985,4.131,0.00005,7.881,0.8422,11.25,2.527,3.409,1.684,6.296,3.93,8.663,6.738l-6.317,6.437c-1.805-2.446-3.83-4.191-6.076-5.234-2.246-1.083-4.752-1.624-7.52-1.624-2.286,0.00003-4.432,0.4211-6.437,1.263-2.005,0.8422-3.77,2.005-5.294,3.489-1.484,1.444-2.667,3.148-3.549,5.113-0.8422,1.925-1.263,3.99-1.263,6.196-0.00001,2.246,0.4211,4.351,1.263,6.317,0.8823,1.925,2.065,3.63,3.549,5.113,1.524,1.484,3.289,2.647,5.294,3.489,2.005,0.8422,4.151,1.263,6.437,1.263,2.166,0.00001,4.211-0.401,6.136-1.203,1.925-0.8021,3.65-1.865,5.174-3.188v-4.632h-9.866v-7.941h18.83v16.06" style="fill:#ffffff;text-align:center;"/>
	<path d="m95.9,276.7c-2.406,2.928-5.334,5.254-8.783,6.978-3.409,1.725-7.179,2.587-11.31,2.587-3.569,0-6.918-0.6417-10.05-1.925-3.128-1.323-5.855-3.108-8.181-5.354s-4.171-4.873-5.534-7.881c-1.323-3.048-1.985-6.316-1.985-9.806,0-3.489,0.6617-6.738,1.985-9.746,1.364-3.048,3.208-5.695,5.534-7.941,2.326-2.286,5.053-4.071,8.181-5.354s6.477-1.925,10.05-1.925c4.131,0.00004,7.901,0.8623,11.31,2.587,3.449,1.725,6.316,3.97,8.602,6.738l-6.437,6.617c-1.484-2.126-3.409-3.83-5.775-5.113-2.326-1.323-4.893-1.985-7.7-1.985-2.246,0.00005-4.371,0.4412-6.377,1.323-1.965,0.8422-3.69,2.005-5.174,3.489-1.484,1.444-2.667,3.148-3.549,5.113-0.8422,1.925-1.263,3.99-1.263,6.196-0.00001,2.166,0.4211,4.231,1.263,6.196,0.8823,1.925,2.065,3.63,3.549,5.113,1.484,1.444,3.208,2.607,5.174,3.489,2.005,0.8422,4.131,1.263,6.377,1.263,2.968,0,5.595-0.6617,7.881-1.985,2.286-1.364,4.191-3.148,5.715-5.354l6.497,6.677" style="fill:#ffffff;text-align:center;"/>
	<path d="m154,285.3-10.23,0-4.452-9.625-23.34,0-4.512,9.625-10.23,0,22.74-48.13,7.279,0,22.74,48.13m-18.35-17.39-8.001-17.33-8.121,17.33,16.12,0" style="fill:#ffffff;text-align:center;"/>
	<path d="m182.8,310.5c-0.00002,1.144-0.193,2.22-0.579,3.226-0.386,0.9926-0.9237,1.868-1.613,2.626-0.6893,0.7445-1.516,1.337-2.481,1.778-0.9512,0.4274-1.992,0.641-3.123,0.641h-6.907v-16.54h6.907c1.13,0.00001,2.171,0.2206,3.123,0.6617,0.965,0.4412,1.792,1.034,2.481,1.778,0.6893,0.7444,1.227,1.62,1.613,2.626s0.579,2.075,0.579,3.205m-3.247-0.0827c0.0138-0.772-0.1034-1.503-0.3515-2.192-0.2482-0.6893-0.6066-1.289-1.075-1.799-0.4687-0.5239-1.048-0.9306-1.737-1.22-0.6755-0.3033-1.441-0.4549-2.295-0.4549h-2.792v11.29h2.792c0.8409,0,1.592-0.1379,2.254-0.4136,0.6755-0.2895,1.248-0.6824,1.716-1.179,0.4687-0.5101,0.8271-1.103,1.075-1.778,0.2619-0.6893,0.3998-1.441,0.4136-2.254" style="fill:#ffffff;text-align:center;"/>
	<path d="m196,285.3-32.55,0,0-48.07,9.505,0,0,39.04,23.04,0,0,9.024" style="fill:#ffffff;text-align:center;"/>
	<path d="m160.3,318.8-3.143,0-7.465-11.6,0,11.6-3.143,0,0-16.54,3.598,0,7.01,10.79,0-10.79,3.143,0,0,16.54" style="fill:#ffffff;text-align:center;"/>
	<path d="m140.2,318.8-3.515,0-1.53-3.309-8.023,0-1.551,3.309-3.515,0,7.817-16.54,2.502,0,7.817,16.54m-6.307-5.976-2.75-5.956-2.792,5.956,5.542,0" style="fill:#ffffff;text-align:center;"/>
	<path d="m254.1,285.3-9.144,0,0-32.12-15.16,25.57-14.56-25.81,0,32.36-9.144,0,0-48.13,10.53,0,13.35,23.88,13.96-23.88,10.17,0,0,48.13" style="fill:#ffffff;text-align:center;"/>
	<path d="m176,383.9-31.76,0,0-48.07,31.76,0,0,7.7-22.62,0,0,11.49,22.32,0,0,7.52-22.32,0,0,13.23,22.62,0,0,8.121" style="fill:#ffffff;text-align:center;"/>
	<path d="m221,344.2-13.29,0,0,39.76-9.445,0,0-39.76-13.29,0,0-8.302,36.03,0,0,8.302" style="fill:#ffffff;text-align:center;"/>
	<path d="m57.84,457.3-9.324,0,0-48.07,9.324,0,0,48.07" style="fill:#ffffff;text-align:center;"/>
	<path d="m114.3,433.3c-0.00005,3.329-0.5615,6.457-1.684,9.385-1.123,2.888-2.687,5.434-4.692,7.64-2.005,2.166-4.412,3.89-7.219,5.174-2.767,1.243-5.795,1.865-9.084,1.865h-20.09v-48.13h20.09c3.289,0.00005,6.316,0.6417,9.084,1.925,2.807,1.283,5.214,3.008,7.219,5.174s3.569,4.712,4.692,7.64,1.684,6.036,1.684,9.324m-9.445-0.2406c0.0401-2.246-0.3008-4.371-1.023-6.377-0.7219-2.005-1.765-3.75-3.128-5.234-1.364-1.524-3.048-2.707-5.053-3.549-1.965-0.8823-4.191-1.323-6.677-1.323h-8.121v32.85h8.121c2.446,0,4.632-0.401,6.557-1.203,1.965-0.8422,3.629-1.985,4.993-3.429,1.364-1.484,2.406-3.208,3.128-5.174,0.762-2.005,1.163-4.191,1.203-6.557" style="fill:#ffffff;text-align:center;"/>
	<path d="m157.9,457.3-31.76,0,0-48.07,31.76,0,0,7.7-22.62,0,0,11.49,22.32,0,0,7.52-22.32,0,0,13.23,22.62,0,0,8.121" style="fill:#ffffff;text-align:center;"/>
	<path d="m218.4,457.3-10.23,0-4.452-9.625-23.34,0-4.512,9.625-10.23,0,22.74-48.13,7.279,0,22.74,48.13m-18.35-17.39-8.001-17.33-8.121,17.33,16.12,0" style="fill:#ffffff;text-align:center;"/>
	<path d="m260.1,444.7c-0.00004,1.805-0.4011,3.529-1.203,5.174-0.762,1.604-1.845,3.028-3.248,4.271-1.404,1.243-3.068,2.246-4.993,3.008-1.925,0.7219-4.051,1.083-6.377,1.083-2.085,0-3.97-0.1203-5.655-0.3609-1.644-0.2406-3.208-0.6216-4.692-1.143-1.444-0.5214-2.847-1.183-4.211-1.985-1.323-0.8422-2.707-1.845-4.151-3.008l6.617-6.677c1.925,1.604,3.81,2.747,5.655,3.429,1.845,0.6417,3.85,0.9625,6.016,0.9625,0.8823,0.00001,1.704-0.1203,2.466-0.3609,0.8021-0.2807,1.484-0.6417,2.045-1.083,0.6016-0.4411,1.063-0.9625,1.384-1.564,0.3609-0.6016,0.5414-1.263,0.5414-1.985-0.00003-0.762-0.1404-1.444-0.4211-2.045-0.2808-0.6016-0.7821-1.183-1.504-1.745-0.7219-0.5614-1.725-1.123-3.008-1.684-1.283-0.6016-2.928-1.263-4.933-1.985-1.765-0.6416-3.469-1.364-5.113-2.166-1.604-0.8422-3.028-1.845-4.271-3.008-1.203-1.163-2.186-2.527-2.948-4.091-0.7219-1.564-1.083-3.409-1.083-5.534,0-2.045,0.401-3.93,1.203-5.655,0.8422-1.724,1.965-3.188,3.369-4.391,1.444-1.243,3.108-2.206,4.993-2.888,1.925-0.6817,3.99-1.023,6.196-1.023,3.69,0.00005,6.798,0.4813,9.324,1.444,2.527,0.9626,4.772,2.366,6.738,4.211l-6.497,6.557c-1.203-1.163-2.547-2.045-4.031-2.647-1.484-0.6416-3.228-0.9625-5.234-0.9625-0.9224,0.00004-1.785,0.1404-2.587,0.4211-0.762,0.2808-1.424,0.6618-1.985,1.143-0.5615,0.4412-1.023,0.9826-1.384,1.624-0.3208,0.6016-0.4813,1.243-0.4812,1.925-0.00002,0.762,0.1604,1.464,0.4812,2.106,0.3208,0.6016,0.8622,1.203,1.624,1.805,0.762,0.5615,1.765,1.143,3.008,1.745,1.283,0.5615,2.867,1.183,4.752,1.865,2.406,0.8422,4.472,1.765,6.196,2.767,1.724,1.003,3.128,2.106,4.211,3.309s1.885,2.567,2.406,4.091c0.5213,1.484,0.782,3.168,0.782,5.053" style="fill:#ffffff;text-align:center;"/>
	<path style="fill:#ffffff;" d="m219.9,41.77,25.73,0-20.92,75.11-25.53,0-10.54-42.1-0.4042,0-10.85,42.1-25.63,0-9.431-42.1-0.4042,0-8.69,42.1-26.34,0-9.397-42.1-0.4379,0-8.151,42.1-25.97,0,20.92-75.11,25.43,0,10.61,42.44,0.4379,0,10.95-42.44,25.3,0,9.465,42.44,0.4379,0,8.757-42.44,26.54,0,9.498,42.44,0.4042,0z"/>
	<path d="m239.9,180c-0.00003,2.286-0.4412,4.432-1.323,6.437-0.8422,1.965-2.005,3.69-3.489,5.174-1.484,1.444-3.228,2.587-5.234,3.429-2.005,0.8021-4.131,1.203-6.377,1.203h-7.941v15.7h-9.324v-48.07h17.27c2.246,0.00005,4.371,0.4212,6.377,1.263,2.005,0.8021,3.75,1.925,5.234,3.369s2.647,3.148,3.489,5.113c0.8823,1.965,1.323,4.091,1.323,6.377m-9.264-0.1203c-0.00003-1.243-0.2406-2.406-0.7219-3.489-0.4412-1.083-1.063-2.025-1.865-2.827-0.8021-0.8021-1.745-1.444-2.827-1.925-1.083-0.4812-2.246-0.7218-3.489-0.7219h-6.196v18.17h6.196c1.243,0.00003,2.406-0.2406,3.489-0.7219,1.083-0.5213,2.025-1.203,2.827-2.045,0.8021-0.8422,1.424-1.805,1.865-2.888,0.4812-1.123,0.7218-2.306,0.7219-3.549" style="fill:#ffffff;text-align:center;"/>
</svg>
